<svg width="20" height="20" viewBox="0 0 20 20" fill="none" xmlns="http://www.w3.org/2000/svg">
<path d="M4.24902 18.0039C3.85107 18.0039 3.45361 17.8965 3.0957 17.6826C2.40966 17.2724 2 16.5498 2 15.751V4.249C2 3.45017 2.40967 2.72752 3.0957 2.31736C3.78125 1.90818 4.61084 1.88767 5.31494 2.26756L16.0161 8.01854C16.7466 8.41112 17.2002 9.17088 17.2002 9.99999C17.2002 10.8291 16.7466 11.5889 16.0161 11.9814L5.31494 17.7324C4.97851 17.9141 4.61328 18.0039 4.24902 18.0039ZM4.25244 3.49608C4.07422 3.49608 3.93408 3.56444 3.86523 3.60546C3.75537 3.67089 3.5 3.86523 3.5 4.24901V15.751C3.5 16.1348 3.75537 16.3291 3.86523 16.3945C3.97509 16.4599 4.2666 16.5927 4.60498 16.4121L15.3057 10.6611C15.6616 10.4687 15.7002 10.1347 15.7002 9.99998C15.7002 9.86522 15.6616 9.53123 15.3057 9.33885L4.60498 3.58787C4.47852 3.52049 4.35889 3.49608 4.25244 3.49608Z" fill="#292929"/>
<path d="M4.24902 18.0039C3.85107 18.0039 3.45361 17.8965 3.0957 17.6826C2.40966 17.2724 2 16.5498 2 15.751V4.249C2 3.45017 2.40967 2.72752 3.0957 2.31736C3.78125 1.90818 4.61084 1.88767 5.31494 2.26756L16.0161 8.01854C16.7466 8.41112 17.2002 9.17088 17.2002 9.99999C17.2002 10.8291 16.7466 11.5889 16.0161 11.9814L5.31494 17.7324C4.97851 17.9141 4.61328 18.0039 4.24902 18.0039ZM4.25244 3.49608C4.07422 3.49608 3.93408 3.56444 3.86523 3.60546C3.75537 3.67089 3.5 3.86523 3.5 4.24901V15.751C3.5 16.1348 3.75537 16.3291 3.86523 16.3945C3.97509 16.4599 4.2666 16.5927 4.60498 16.4121L15.3057 10.6611C15.6616 10.4687 15.7002 10.1347 15.7002 9.99998C15.7002 9.86522 15.6616 9.53123 15.3057 9.33885L4.60498 3.58787C4.47852 3.52049 4.35889 3.49608 4.25244 3.49608Z" fill="#292929"/>
</svg>
