<svg width="20" height="20" viewBox="0 0 20 20" fill="none" xmlns="http://www.w3.org/2000/svg">
  <g id="S2_Icon_LockOpen_20_N">
    <path d="M11.25 12.5C11.25 11.8105 10.6895 11.25 10 11.25C9.31055 11.25 8.75 11.8105 8.75 12.5C8.75 12.9026 8.95361 13.2449 9.25 13.4736V14.25C9.25 14.6641 9.58594 15 10 15C10.4141 15 10.75 14.6641 10.75 14.25V13.4736C11.0464 13.2449 11.25 12.9026 11.25 12.5Z" fill="currentColor"/>
    <path d="M14.75 7.99999H6.5V5.24999C6.5 3.3203 8.07031 1.74999 10 1.74999C10.8652 1.74999 11.6963 2.06835 12.3389 2.6455C12.6455 2.92284 13.1221 2.89843 13.3975 2.58886C13.6748 2.28124 13.6494 1.80663 13.3408 1.53027C12.4229 0.70507 11.2363 0.25 10 0.25C7.24316 0.25 5 2.49316 5 5.25V8.02539C3.87842 8.15161 3 9.09546 3 10.25V16.75C3 17.9902 4.00977 19 5.25 19H14.75C15.9902 19 17 17.9902 17 16.75V10.25C17 9.00977 15.9902 7.99999 14.75 7.99999ZM15.5 16.75C15.5 17.1631 15.1631 17.5 14.75 17.5H5.25C4.83691 17.5 4.5 17.1631 4.5 16.75V10.25C4.5 9.8369 4.83691 9.49999 5.25 9.49999H14.75C15.1631 9.49999 15.5 9.8369 15.5 10.25V16.75Z" fill="currentColor"/>
  </g>
</svg>
