<svg width="20" height="20" viewBox="0 0 20 20" fill="none" xmlns="http://www.w3.org/2000/svg">
<g id="S2_Icon_Compare_20_N">
  <path d="M8.25 18.0215H7.25C6.00977 18.0215 5 17.0117 5 15.7715V7.27148C5 6.03125 6.00977 5.02148 7.25 5.02148H15.75C16.9902 5.02148 18 6.03125 18 7.27148V8.25C18 8.66406 17.6641 9 17.25 9C16.8359 9 16.5 8.66406 16.5 8.25V7.27148C16.5 6.85839 16.1631 6.52148 15.75 6.52148H7.25C6.83691 6.52148 6.5 6.85839 6.5 7.27148V15.7715C6.5 16.1846 6.83691 16.5215 7.25 16.5215H8.25C8.66406 16.5215 9 16.8574 9 17.2715C9 17.6855 8.66406 18.0215 8.25 18.0215Z" fill="currentColor"/>
  <path d="M2.75 13.7715C2.33594 13.7715 2 13.4355 2 13.0215V4.27148C2 3.03125 3.00977 2.02148 4.25 2.02148H13C13.4141 2.02148 13.75 2.35742 13.75 2.77148C13.75 3.18554 13.4141 3.52148 13 3.52148H4.25C3.83691 3.52148 3.5 3.85839 3.5 4.27148V13.0215C3.5 13.4355 3.16406 13.7715 2.75 13.7715Z" fill="currentColor"/>
  <path d="M19.4307 18.3701L16.8394 15.7788C17.309 15.1023 17.5879 14.2843 17.5879 13.4004C17.5879 11.0918 15.709 9.21289 13.4004 9.21289C11.0918 9.21289 9.21289 11.0918 9.21289 13.4004C9.21289 15.709 11.0918 17.5879 13.4004 17.5879C14.2843 17.5879 15.1023 17.309 15.7788 16.8394L18.3701 19.4307C18.5166 19.5771 18.708 19.6504 18.9004 19.6504C19.0928 19.6504 19.2842 19.5772 19.4307 19.4307C19.7236 19.1377 19.7236 18.6631 19.4307 18.3701ZM10.7129 13.4004C10.7129 11.9189 11.9189 10.7129 13.4004 10.7129C14.8818 10.7129 16.0879 11.9189 16.0879 13.4004C16.0879 14.8818 14.8818 16.0879 13.4004 16.0879C11.9189 16.0879 10.7129 14.8818 10.7129 13.4004Z" fill="currentColor"/>
</g>
</svg>
