<svg width="20" height="20" viewBox="0 0 20 20" fill="none" xmlns="http://www.w3.org/2000/svg">
  <g id="S2_Icon_Lock_20_N">
    <path d="M11.25 11.5C11.25 10.8105 10.6895 10.25 10 10.25C9.31055 10.25 8.75 10.8105 8.75 11.5C8.75 11.9026 8.95361 12.2449 9.25 12.4736V13.25C9.25 13.6641 9.58594 14 10 14C10.4141 14 10.75 13.6641 10.75 13.25V12.4736C11.0464 12.2449 11.25 11.9026 11.25 11.5Z" fill="currentColor"/>
    <path d="M15 7.02539V6.5C15 3.74316 12.7568 1.5 10 1.5C7.24316 1.5 5 3.74316 5 6.5V7.02539C3.87842 7.15161 3 8.09546 3 9.25V15.75C3 16.9902 4.00977 18 5.25 18H14.75C15.9902 18 17 16.9902 17 15.75V9.25C17 8.09546 16.1216 7.15161 15 7.02539ZM10 3C11.9297 3 13.5 4.57031 13.5 6.5V7H6.5V6.5C6.5 4.57031 8.07031 3 10 3ZM15.5 15.75C15.5 16.1631 15.1631 16.5 14.75 16.5H5.25C4.83691 16.5 4.5 16.1631 4.5 15.75V9.25C4.5 8.83691 4.83691 8.5 5.25 8.5H14.75C15.1631 8.5 15.5 8.83691 15.5 9.25V15.75Z" fill="currentColor"/>
  </g>
</svg>
