<svg width="20" height="20" viewBox="0 0 20 20" fill="none" xmlns="http://www.w3.org/2000/svg">
<g id="S2_Icon_PublishNo_20_N">
  <path d="M15 10.5C12.5147 10.5 10.5 12.5147 10.5 15C10.5 17.4853 12.5147 19.5 15 19.5C17.4853 19.5 19.5 17.4853 19.5 15C19.5 12.5147 17.4853 10.5 15 10.5ZM17.21 16.3252C17.4531 16.5693 17.4531 16.9658 17.21 17.21C17.0879 17.332 16.9277 17.3926 16.7676 17.3926C16.6074 17.3926 16.4473 17.332 16.3252 17.21L15 15.8848L13.6748 17.21C13.5527 17.332 13.3926 17.3926 13.2324 17.3926C13.0723 17.3926 12.9121 17.332 12.79 17.21C12.5469 16.9658 12.5469 16.5693 12.79 16.3252L14.1152 15L12.79 13.6748C12.5469 13.4307 12.5469 13.0342 12.79 12.79C13.0342 12.5459 13.4307 12.5459 13.6748 12.79L15 14.1152L16.3252 12.79C16.5694 12.5459 16.9658 12.5459 17.21 12.79C17.4531 13.0342 17.4531 13.4306 17.21 13.6748L15.8848 15L17.21 16.3252Z" fill="currentColor"/>
  <path d="M18.7793 1.21876C18.5674 1.00782 18.2529 0.943371 17.9746 1.05274L1.47461 7.56153C1.20508 7.667 1.02149 7.91993 1.00195 8.20899C0.982406 8.49805 1.13086 8.77247 1.38379 8.91309L7.63892 12.408L8.06836 13.166C8.20606 13.4102 8.45996 13.5469 8.72168 13.5469C8.84668 13.5469 8.97363 13.5156 9.08984 13.4492C9.45117 13.2451 9.57714 12.7881 9.37304 12.4277L9.1206 11.9819L16.2497 4.81397L14.9287 8.2002C14.7793 8.58594 14.9707 9.02051 15.3574 9.16993C15.7441 9.31935 16.1777 9.12794 16.3271 8.74122L18.9482 2.02247C19.0566 1.74513 18.9902 1.42872 18.7793 1.21876ZM8.05615 10.9231L3.49707 8.37599L15.1689 3.77149L8.05615 10.9231Z" fill="currentColor"/>
</g>
</svg>
