<svg width="20" height="20" viewBox="0 0 20 20" fill="none" xmlns="http://www.w3.org/2000/svg">
<g id="S2_Icon_Save_20_N">
  <path d="M17.4141 4.10352L15.8965 2.58594C15.5185 2.20801 15.0166 2 14.4824 2H4.25C3.00928 2 2 3.00977 2 4.25V15.75C2 16.9902 3.00928 18 4.25 18H15.75C16.9907 18 18 16.9902 18 15.75V5.51758C18 4.99121 17.7866 4.47559 17.4141 4.10352ZM7.75 3.5H12.25V6.5H7.75V3.5ZM13.25 16.5H6.75V12H13.25V16.5ZM16.5 15.75C16.5 16.1631 16.1636 16.5 15.75 16.5H14.75V12C14.75 11.1728 14.0772 10.5 13.25 10.5H6.75C5.92285 10.5 5.25 11.1728 5.25 12V16.5H4.25C3.83643 16.5 3.5 16.1631 3.5 15.75V4.25C3.5 3.83691 3.83643 3.5 4.25 3.5H6.25V6.5C6.25 7.32715 6.92285 8 7.75 8H12.25C13.0772 8 13.75 7.32715 13.75 6.5V3.5H14.4824C14.6157 3.5 14.7412 3.55176 14.8359 3.64648L16.3535 5.16406C16.4468 5.25683 16.5 5.38574 16.5 5.51758V15.75Z" fill="currentColor"/>
</g>
</svg>
