<svg width="20" height="20" viewBox="0 0 20 20" fill="none" xmlns="http://www.w3.org/2000/svg">
  <g id="S2_Icon_Pause_20_N">
    <path fill="currentColor" d="M6.75 18H4.25C3.00928 18 2 16.9902 2 15.75V4.25C2 3.00977 3.00928 2 4.25 2H6.75C7.99072 2 9 3.00977 9 4.25V15.75C9 16.9902 7.99072 18 6.75 18ZM4.25 3.5C3.83643 3.5 3.5 3.83691 3.5 4.25V15.75C3.5 16.1631 3.83643 16.5 4.25 16.5H6.75C7.16357 16.5 7.5 16.1631 7.5 15.75V4.25C7.5 3.83691 7.16357 3.5 6.75 3.5H4.25Z"/>
    <path fill="currentColor" d="M15.75 18H13.25C12.0093 18 11 16.9902 11 15.75V4.25C11 3.00977 12.0093 2 13.25 2H15.75C16.9907 2 18 3.00977 18 4.25V15.75C18 16.9902 16.9907 18 15.75 18ZM13.25 3.5C12.8364 3.5 12.5 3.83691 12.5 4.25V15.75C12.5 16.1631 12.8364 16.5 13.25 16.5H15.75C16.1636 16.5 16.5 16.1631 16.5 15.75V4.25C16.5 3.83691 16.1636 3.5 15.75 3.5H13.25Z"/>
    <path fill="currentColor" d="M6.75 18H4.25C3.00928 18 2 16.9902 2 15.75V4.25C2 3.00977 3.00928 2 4.25 2H6.75C7.99072 2 9 3.00977 9 4.25V15.75C9 16.9902 7.99072 18 6.75 18ZM4.25 3.5C3.83643 3.5 3.5 3.83691 3.5 4.25V15.75C3.5 16.1631 3.83643 16.5 4.25 16.5H6.75C7.16357 16.5 7.5 16.1631 7.5 15.75V4.25C7.5 3.83691 7.16357 3.5 6.75 3.5H4.25Z"/>
    <path fill="currentColor" d="M15.75 18H13.25C12.0093 18 11 16.9902 11 15.75V4.25C11 3.00977 12.0093 2 13.25 2H15.75C16.9907 2 18 3.00977 18 4.25V15.75C18 16.9902 16.9907 18 15.75 18ZM13.25 3.5C12.8364 3.5 12.5 3.83691 12.5 4.25V15.75C12.5 16.1631 12.8364 16.5 13.25 16.5H15.75C16.1636 16.5 16.5 16.1631 16.5 15.75V4.25C16.5 3.83691 16.1636 3.5 15.75 3.5H13.25Z"/>
  </g>
</svg>
