<svg width="20" height="20" viewBox="0 0 20 20" fill="none" xmlns="http://www.w3.org/2000/svg">
  <g id="S2_Icon_User_20_N">
    <path d="M10 11.25C7.38086 11.25 5.25 9.00684 5.25 6.25C5.25 3.49316 7.38086 1.25 10 1.25C12.6191 1.25 14.75 3.49316 14.75 6.25C14.75 9.00684 12.6191 11.25 10 11.25ZM10 2.75C8.20801 2.75 6.75 4.32031 6.75 6.25C6.75 8.17969 8.20801 9.75 10 9.75C11.792 9.75 13.25 8.17969 13.25 6.25C13.25 4.32031 11.792 2.75 10 2.75Z" fill="currentColor"/>
    <path d="M17.249 18.75C16.8711 18.75 16.5459 18.4648 16.5044 18.081C16.2417 15.6523 13.3843 13.75 10 13.75C6.58643 13.75 3.72949 15.6484 3.49658 18.0723C3.45654 18.4844 3.08691 18.7998 2.67822 18.7461C2.26611 18.707 1.96386 18.3408 2.00342 17.9277C2.30957 14.7441 5.82227 12.25 10 12.25C14.2085 12.25 17.646 14.6875 17.9956 17.919C18.04 18.3311 17.7427 18.7012 17.3306 18.7461C17.3032 18.749 17.2759 18.75 17.249 18.75Z" fill="currentColor"/>
  </g>
</svg>
